# xmcd
#
# Track frame offsets:
#	150
#	17408
#	36400
#	59698
#	77803
#	96567
#	116414
#	137795
#	165479
#	187889
#	205870
#	225357
#	245337
#	264551
#
# Disc length: 3850 seconds
#
# Revision: 1
# Processed by: cddbd v1.5.2PL0 Copyright (c) Steve Scherf et al.
# Submitted via: audiograbber 1.83.01
#
DISCID=b80f080e
DTITLE=Ana Popovic - Still making history
DYEAR=2007
DGENRE=Blues
TTITLE0=U Complete me
TTITLE1=Hold on
TTITLE2=Between our worlds
TTITLE3=Is this everything there is
TTITLE4=Hungry
TTITLE5=Doubt everyone but me
TTITLE6=You don't move me
TTITLE7=Still making history
TTITLE8=My favorite night
TTITLE9=How'd you learn to shake it like that
TTITLE10=Shadow after dark
TTITLE11=Calendars
TTITLE12=Sexiest man alive
TTITLE13=U complete me (Blues version)
EXTD=Delta Groove Music
EXTT0=
EXTT1=
EXTT2=
EXTT3=
EXTT4=
EXTT5=
EXTT6=
EXTT7=
EXTT8=
EXTT9=
EXTT10=
EXTT11=
EXTT12=
EXTT13=Bonus track
PLAYORDER=
